<?xml version="1.0" standalone="no"?>
<!DOCTYPE svg PUBLIC "-//W3C//DTD SVG 20010904//EN"
 "http://www.w3.org/TR/2001/REC-SVG-20010904/DTD/svg10.dtd">
<svg version="1.0" xmlns="http://www.w3.org/2000/svg"
 width="600.000000pt" height="600.000000pt" viewBox="0 0 600.000000 600.000000"
 preserveAspectRatio="xMidYMid meet">
<metadata>
Created by potrace 1.14, written by Peter Selinger 2001-2017
</metadata>
<g transform="translate(0.000000,600.000000) scale(0.100000,-0.100000)"
fill="#000000" stroke="none">
<path d="M2899 5400 c-145 -21 -334 -70 -417 -110 -194 -93 -394 -248 -477
-371 -16 -24 -33 -45 -37 -47 -5 -2 -8 -10 -8 -17 0 -7 -4 -15 -8 -17 -10 -3
-72 -130 -72 -146 0 -5 -9 -37 -20 -71 -32 -100 -60 -311 -41 -311 4 0 5 -15
3 -32 -3 -25 -13 -39 -43 -58 -21 -13 -39 -28 -39 -32 0 -4 -5 -8 -11 -8 -18
0 -219 -212 -225 -237 -9 -35 17 -78 46 -76 14 1 58 5 98 8 47 5 72 3 72 -3 0
-6 -4 -13 -9 -16 -7 -5 -20 -51 -21 -71 0 -3 -6 -18 -14 -34 -9 -16 -13 -31
-10 -33 2 -3 -2 -11 -11 -18 -8 -7 -15 -22 -15 -34 0 -12 -4 -26 -8 -32 -5 -5
-23 -54 -41 -109 -17 -55 -36 -113 -42 -130 -6 -16 -12 -41 -15 -55 -2 -14
-13 -56 -23 -95 -69 -266 -102 -399 -111 -459 -6 -38 -13 -72 -15 -76 -4 -6
-36 -211 -49 -315 -3 -22 -5 -40 -6 -40 -334 0 -320 1 -407 -34 -120 -48 -217
-114 -268 -185 -11 -15 -30 -40 -42 -54 -13 -15 -23 -32 -23 -37 0 -6 -5 -16
-12 -23 -6 -6 -13 -17 -14 -24 -2 -7 -11 -33 -20 -58 -32 -85 -18 -222 28
-277 10 -13 10 -17 0 -20 -6 -3 -10 -8 -7 -13 3 -4 -2 -13 -10 -20 -8 -7 -15
-21 -15 -30 0 -10 -4 -20 -8 -22 -10 -3 -62 -129 -62 -148 0 -6 -9 -29 -20
-50 -11 -22 -17 -40 -13 -40 5 0 3 -4 -3 -8 -13 -9 -53 -104 -69 -164 -17 -63
-6 -76 64 -80 l54 -3 14 -60 c39 -168 92 -289 152 -343 65 -60 96 -80 126 -84
24 -2 30 -8 29 -25 0 -18 5 -23 25 -23 15 0 37 7 49 16 21 14 26 14 63 0 49
-20 54 -20 73 -1 11 12 21 13 41 5 42 -16 66 -12 72 11 6 20 11 21 66 15 33
-3 84 -6 113 -6 30 0 53 -3 53 -7 -6 -36 17 -42 72 -19 32 13 35 13 56 -10 28
-31 50 -30 74 0 18 22 25 24 69 19 40 -5 50 -3 50 9 0 21 28 42 78 58 49 16
128 87 147 134 8 17 16 50 19 74 3 23 9 61 12 85 3 23 7 62 8 85 2 62 28 75
67 34 16 -17 29 -35 29 -40 0 -12 25 -22 54 -22 27 0 52 25 61 63 4 15 10 27
14 27 5 0 14 18 21 41 16 46 14 45 60 53 19 3 62 12 95 20 67 16 267 19 343 4
38 -7 113 -15 165 -18 13 0 7 -19 -15 -44 -42 -46 -62 -78 -62 -100 -1 -17 6
-22 39 -24 21 -2 65 4 96 12 31 9 63 14 71 11 8 -3 24 -26 36 -50 19 -40 25
-45 56 -45 26 0 43 9 69 35 19 19 39 35 44 35 5 0 39 -18 76 -40 71 -43 124
-52 151 -24 9 8 30 45 47 80 17 35 35 67 40 69 5 3 66 6 136 7 129 1 211 13
293 42 25 9 49 18 55 19 5 1 14 5 20 10 5 4 40 23 77 41 l68 34 1 -57 c0 -31
2 -63 3 -71 2 -8 6 -42 10 -75 12 -112 20 -139 52 -174 24 -25 24 -26 5 -35
-11 -5 -22 -15 -25 -22 -4 -11 7 -14 49 -14 41 0 55 -4 55 -14 0 -20 35 -29
59 -17 13 7 22 8 26 1 10 -16 43 -12 65 7 32 28 88 31 150 10 112 -40 107 -37
88 -48 -10 -6 -18 -17 -18 -24 0 -11 13 -15 53 -15 41 0 58 -5 72 -20 20 -22
46 -25 74 -10 14 7 23 5 36 -10 24 -27 55 -25 87 5 21 19 38 25 75 25 26 0 98
10 158 21 61 11 144 19 185 19 96 -1 175 22 184 53 8 32 8 31 -18 62 -32 37
-36 62 -42 255 -5 202 -13 373 -19 420 -2 19 -6 64 -10 100 -3 36 -7 76 -10
90 -5 23 -13 69 -21 114 -2 10 6 37 18 60 28 52 29 170 4 269 -23 87 -88 240
-122 284 -50 65 -199 210 -245 236 -138 81 -427 71 -589 -21 -25 -14 -66 -42
-92 -63 l-46 -39 -22 68 c-59 183 -91 315 -114 480 -4 24 -9 69 -12 100 -3 32
-8 75 -10 97 -3 22 -7 204 -10 405 -6 503 -8 531 -41 650 -24 86 -101 288
-139 365 -19 39 -34 74 -34 78 0 5 -9 22 -21 38 -11 16 -18 29 -15 29 9 0 -72
132 -102 163 -94 101 -238 227 -260 227 -6 0 -12 4 -14 8 -15 37 -252 131
-380 151 -98 16 -257 21 -329 11z"/>
</g>
</svg>
