<?xml version="1.0" standalone="no"?>
<!DOCTYPE svg PUBLIC "-//W3C//DTD SVG 20010904//EN"
 "http://www.w3.org/TR/2001/REC-SVG-20010904/DTD/svg10.dtd">
<svg version="1.0" xmlns="http://www.w3.org/2000/svg"
 width="308.000000pt" height="308.000000pt" viewBox="0 0 308.000000 308.000000"
 preserveAspectRatio="xMidYMid meet">
<metadata>
Created by potrace 1.14, written by Peter Selinger 2001-2017
</metadata>
<g transform="translate(0.000000,308.000000) scale(0.100000,-0.100000)"
fill="#000000" stroke="none">
<path d="M1647 2663 c-4 -6 -18 -8 -32 -5 -16 3 -25 0 -25 -8 0 -10 -3 -10
-15 0 -12 10 -15 10 -15 -1 0 -10 -2 -11 -8 -2 -11 17 -104 12 -97 -5 3 -7 0
-10 -6 -7 -5 4 -17 1 -25 -6 -12 -10 -13 -9 -9 3 4 10 0 14 -14 13 -11 -1 -24
-4 -27 -8 -4 -4 -16 -7 -26 -7 -10 0 -18 -3 -18 -7 0 -5 -10 -9 -23 -9 -34 -3
-51 -8 -59 -19 -5 -6 -12 -4 -18 5 -7 11 -10 11 -10 2 0 -7 -4 -10 -10 -7 -5
3 -10 2 -10 -3 0 -12 -41 -30 -63 -26 -10 1 -14 -2 -11 -8 5 -7 -2 -9 -20 -6
-18 4 -26 1 -26 -9 0 -9 -6 -13 -14 -10 -8 3 -17 -1 -20 -9 -3 -8 -12 -14 -21
-14 -8 0 -15 -4 -15 -10 0 -5 -9 -10 -20 -10 -11 0 -20 -4 -20 -10 0 -5 -6
-10 -14 -10 -8 0 -24 -12 -36 -27 -12 -16 -27 -28 -33 -28 -7 -1 -11 -6 -10
-12 1 -6 -6 -9 -19 -5 -14 3 -19 1 -14 -6 4 -7 1 -12 -9 -12 -9 0 -14 -4 -10
-10 3 -5 -7 -16 -22 -24 -15 -8 -21 -15 -13 -16 13 0 13 -2 0 -9 -8 -6 -17 -8
-21 -5 -5 2 -6 -4 -4 -14 2 -13 -5 -23 -21 -31 -13 -6 -25 -15 -25 -21 -1 -5
-2 -15 -3 -21 0 -6 -9 -16 -18 -23 -10 -7 -15 -16 -11 -19 3 -4 -8 -19 -25
-35 -17 -16 -28 -32 -25 -36 3 -3 1 -6 -5 -6 -6 0 -9 -9 -7 -20 2 -11 0 -18
-6 -15 -5 4 -9 -1 -9 -9 0 -9 -4 -16 -10 -16 -5 0 -10 -16 -10 -35 0 -19 -4
-35 -10 -35 -5 0 -10 -9 -10 -20 0 -11 -6 -20 -12 -20 -9 0 -8 -4 2 -10 10 -6
11 -10 3 -10 -7 0 -13 -7 -13 -16 0 -8 -4 -13 -9 -10 -5 3 -8 -7 -7 -23 1 -17
-1 -28 -5 -25 -4 2 -10 -3 -13 -12 -4 -10 -2 -13 6 -8 7 5 8 3 2 -7 -4 -8 -9
-20 -11 -28 -1 -8 -6 -17 -11 -20 -5 -3 -8 -14 -6 -23 1 -10 -1 -18 -4 -18 -4
0 -8 -10 -9 -22 -1 -13 -3 -37 -5 -55 -3 -20 0 -29 6 -25 6 3 5 -2 -3 -11 -9
-11 -10 -17 -2 -17 13 0 10 -20 -6 -37 -6 -7 -9 -21 -6 -32 3 -10 -1 -30 -8
-42 -11 -22 -11 -23 4 -11 13 11 15 10 10 -9 -4 -14 -2 -20 4 -16 19 12 23
-22 5 -35 -19 -15 -28 -48 -13 -48 6 0 8 -7 5 -15 -4 -9 0 -15 7 -15 9 -1 8
-4 -4 -11 -12 -7 -15 -15 -8 -27 4 -9 6 -23 3 -31 -3 -9 0 -11 8 -6 9 5 11 4
6 -4 -12 -19 -18 -63 -7 -57 12 8 22 -20 15 -39 -4 -9 0 -15 7 -15 11 0 11 -3
-1 -10 -12 -8 -12 -10 -1 -10 8 0 11 -7 8 -20 -3 -11 1 -27 10 -35 8 -8 10
-15 5 -15 -11 0 -10 -14 3 -42 4 -10 10 -16 14 -14 4 3 8 -11 9 -30 2 -23 -2
-36 -13 -40 -8 -3 -13 -9 -11 -13 2 -3 -6 -15 -17 -26 -11 -11 -16 -14 -12 -6
5 9 4 12 -3 7 -7 -4 -12 -14 -12 -22 0 -8 -6 -14 -12 -14 -9 0 -8 -4 2 -10 13
-9 13 -10 0 -11 -8 -1 -19 -1 -23 0 -5 1 -6 -3 -2 -9 3 -5 1 -10 -5 -10 -6 0
-8 -4 -5 -10 3 -5 1 -10 -4 -10 -6 0 -11 -8 -11 -17 0 -15 2 -16 10 -3 5 8 10
10 10 4 0 -6 -7 -17 -15 -24 -8 -7 -15 -9 -15 -5 0 16 -44 -49 -47 -69 -2 -12
-11 -26 -19 -33 -9 -7 -14 -19 -11 -28 4 -8 2 -15 -4 -15 -6 0 -8 -4 -5 -9 4
-5 3 -11 -1 -13 -13 -5 -53 -88 -53 -109 0 -10 -7 -19 -15 -19 -9 0 -12 -6 -9
-15 4 -8 0 -23 -7 -32 -12 -14 -12 -16 1 -9 9 5 8 2 -2 -7 -14 -11 -15 -16 -5
-27 8 -8 8 -11 1 -7 -14 8 -24 -14 -24 -49 0 -13 -5 -24 -12 -24 -6 0 -8 -3
-5 -7 4 -3 -1 -12 -11 -20 -9 -8 -11 -12 -4 -8 18 9 15 -6 -5 -21 -17 -13 -17
-14 0 -8 20 7 20 8 -11 -53 -7 -12 -14 -40 -17 -62 -4 -36 -3 -39 17 -33 14 3
19 1 14 -6 -3 -6 -2 -14 4 -17 6 -4 9 -1 8 7 -2 9 8 13 32 13 24 0 34 -4 32
-13 -1 -8 2 -11 8 -7 6 3 8 11 4 16 -4 7 9 9 32 7 26 -2 38 -7 36 -16 -1 -8 2
-11 8 -7 6 3 8 11 5 16 -4 5 3 9 15 9 12 0 19 -4 15 -9 -3 -5 -1 -13 5 -16 6
-4 9 -1 8 7 -2 9 8 13 32 13 24 0 34 -4 32 -13 -1 -8 2 -11 8 -7 6 3 8 11 5
16 -4 5 3 9 15 9 12 0 19 -4 15 -9 -3 -5 -1 -13 5 -16 6 -4 9 -1 8 7 -2 9 8
13 32 13 24 0 34 -4 32 -13 -1 -8 2 -11 8 -7 6 3 8 10 5 15 -3 5 21 8 52 7 42
-2 57 -6 55 -15 -1 -8 2 -11 8 -7 6 3 8 11 5 16 -4 5 3 9 15 9 12 0 19 -4 15
-9 -3 -5 -1 -13 5 -16 6 -4 9 -1 8 7 -2 9 12 13 52 13 40 0 54 -4 52 -13 -1
-8 2 -11 8 -7 6 3 8 11 5 16 -4 5 3 9 15 9 12 0 19 -4 15 -9 -3 -5 -1 -13 5
-16 6 -4 9 -1 8 7 -2 10 22 13 112 13 90 0 114 -3 112 -13 -1 -8 2 -11 8 -7 6
3 8 11 5 16 -4 5 3 9 15 9 12 0 19 -4 15 -9 -3 -5 -1 -13 5 -16 6 -4 9 -1 8 7
-2 9 8 13 32 13 24 0 34 -4 32 -13 -1 -8 2 -11 8 -7 6 3 8 11 5 16 -4 5 3 9
15 9 12 0 19 -4 15 -9 -3 -5 -1 -13 5 -16 6 -4 9 -1 8 7 -2 9 8 13 32 13 24 0
34 -4 32 -13 -1 -8 2 -11 8 -7 6 3 8 10 5 14 -2 5 57 8 133 7 108 -1 136 -4
134 -14 -1 -8 2 -11 8 -7 6 3 8 11 5 16 -4 5 3 9 15 9 12 0 19 -4 15 -9 -3 -5
-1 -13 5 -16 6 -4 9 -1 8 7 -2 9 12 13 52 13 40 0 54 -4 52 -13 -1 -8 2 -11 8
-7 6 3 8 10 5 15 -3 5 21 7 52 6 41 -2 57 -6 55 -15 -1 -7 2 -10 8 -6 6 3 8
11 5 16 -4 5 3 9 15 9 12 0 19 -4 15 -9 -3 -5 -1 -13 5 -16 6 -4 9 -1 8 7 -2
9 8 13 32 13 24 0 34 -4 32 -13 -1 -8 2 -11 8 -7 6 3 8 11 4 16 -4 7 29 9 93
6 72 -2 97 -7 95 -16 -1 -7 2 -10 8 -6 6 3 8 11 5 16 -4 5 3 9 15 9 12 0 19
-4 15 -9 -3 -5 -1 -13 5 -16 6 -4 9 -1 8 7 -2 9 8 13 32 13 24 0 34 -4 32 -13
-1 -8 2 -11 8 -7 6 3 8 11 4 16 -4 7 29 9 93 6 72 -2 97 -7 95 -16 -1 -7 2
-10 8 -6 6 3 8 11 5 16 -4 5 3 9 15 9 12 0 19 -4 15 -9 -3 -5 -1 -13 5 -16 6
-4 9 -1 8 7 -2 9 8 13 32 13 24 0 34 -4 32 -13 -1 -8 2 -11 8 -7 6 3 8 11 4
16 -4 7 29 9 93 6 72 -2 97 -7 95 -16 -1 -7 2 -10 8 -6 6 3 8 10 5 14 -2 5 28
7 68 7 l72 -2 -2 238 c-2 307 -4 330 -23 348 -8 8 -15 25 -14 38 1 15 -3 21
-12 18 -8 -3 -11 0 -8 8 3 8 1 17 -5 20 -6 4 -8 13 -4 21 3 10 -1 15 -13 16
-11 0 -14 3 -7 6 10 3 9 8 -2 20 -8 8 -13 19 -10 24 4 5 1 9 -4 9 -6 0 -11 7
-11 16 0 8 -4 12 -10 9 -6 -4 -10 6 -10 22 0 22 -2 25 -10 13 -8 -12 -10 -11
-10 8 0 12 -4 22 -10 22 -5 0 -10 7 -10 16 0 8 -4 12 -10 9 -6 -4 -10 5 -10
21 0 15 -3 25 -6 21 -8 -8 -34 18 -34 33 0 6 -4 9 -8 6 -5 -3 -17 9 -27 26
-12 21 -14 28 -4 23 11 -7 12 -6 2 7 -7 8 -10 18 -6 22 4 3 7 21 8 39 0 17 4
38 8 45 5 6 4 12 -1 12 -12 0 -8 75 4 92 12 15 -18 82 -31 70 -5 -4 -5 -1 -1
6 5 9 12 10 20 3 8 -7 12 -5 12 9 0 10 -5 16 -11 12 -5 -3 -4 2 4 11 11 14 11
17 0 17 -11 0 -11 2 1 10 8 5 10 10 4 10 -15 0 -26 40 -11 40 7 0 5 5 -4 10
-9 5 -17 24 -18 42 -1 18 -4 51 -7 73 -2 22 -4 52 -4 68 0 15 -5 27 -12 27 -9
0 -8 3 2 10 13 8 13 10 -2 10 -12 0 -15 5 -11 17 4 10 2 14 -4 10 -5 -3 -10 0
-10 8 0 8 4 12 8 10 4 -3 6 3 5 12 -2 9 -8 19 -14 21 -7 2 -10 8 -6 13 3 5 0
9 -7 9 -8 0 -8 4 1 15 11 13 10 14 -3 9 -12 -4 -14 0 -10 18 4 19 3 20 -7 8
-10 -13 -11 -13 -6 3 7 22 -3 49 -16 41 -6 -4 -5 3 1 15 9 17 9 26 -2 41 -8
11 -17 17 -20 14 -4 -4 -5 3 -2 15 2 11 0 21 -6 21 -5 0 -9 7 -9 15 0 8 -6 15
-12 15 -9 0 -8 4 2 10 10 6 11 10 3 10 -7 0 -13 7 -13 15 0 8 -5 15 -11 15 -5
0 -8 4 -5 9 3 4 -6 21 -20 37 -13 16 -23 37 -20 46 4 17 -60 95 -75 91 -8 -3
-13 19 -10 40 0 4 -4 7 -10 7 -5 0 -27 12 -47 26 -20 15 -29 24 -20 21 12 -4
15 -2 11 8 -3 8 -9 12 -14 9 -5 -3 -23 9 -40 25 -17 17 -36 28 -42 24 -7 -3
-9 -2 -4 2 8 10 -43 46 -55 39 -4 -3 -8 0 -8 6 0 7 -6 10 -14 7 -8 -3 -19 5
-26 19 -8 13 -21 24 -29 24 -9 0 -23 9 -31 20 -10 14 -17 16 -27 8 -9 -7 -14
-6 -19 7 -5 13 -9 14 -15 3 -6 -9 -9 -10 -9 -1 0 7 -7 10 -16 6 -11 -4 -22 1
-30 12 -8 10 -14 13 -14 7 0 -10 -5 -10 -20 -2 -11 6 -20 8 -20 5 0 -3 -8 -1
-18 4 -10 5 -24 6 -32 1 -9 -6 -19 -3 -28 8 -7 9 -11 11 -7 5 3 -7 1 -13 -4
-13 -6 0 -11 5 -11 11 0 5 -4 8 -9 4 -5 -3 -12 -1 -15 3 -7 12 -42 8 -60 -7
-14 -12 -16 -11 -10 3 4 9 3 16 -2 15 -5 -1 -17 1 -27 6 -10 4 -24 2 -34 -6
-14 -12 -16 -12 -8 0 6 11 4 13 -8 8 -9 -3 -17 -1 -20 6 -2 7 -5 8 -10 0z
m-1143 -982 c3 -5 -1 -11 -9 -14 -9 -4 -12 -1 -8 9 6 16 10 17 17 5z m2281
-361 c3 -5 1 -10 -4 -10 -6 0 -11 5 -11 10 0 6 2 10 4 10 3 0 8 -4 11 -10z
m-2385 -594 c0 -2 -8 -10 -17 -17 -16 -13 -17 -12 -4 4 13 16 21 21 21 13z"/>
<path d="M640 60 c-9 -6 -10 -10 -3 -10 6 0 15 5 18 10 8 12 4 12 -15 0z"/>
<path d="M790 56 c7 -7 13 -7 20 0 6 6 3 10 -10 10 -13 0 -16 -4 -10 -10z"/>
<path d="M946 58 c3 -5 10 -6 15 -3 13 9 11 12 -6 12 -8 0 -12 -4 -9 -9z"/>
<path d="M1015 60 c3 -5 8 -10 11 -10 2 0 4 5 4 10 0 6 -5 10 -11 10 -5 0 -7
-4 -4 -10z"/>
<path d="M1095 60 c3 -5 8 -10 11 -10 2 0 4 5 4 10 0 6 -5 10 -11 10 -5 0 -7
-4 -4 -10z"/>
<path d="M1495 60 c3 -5 8 -10 11 -10 2 0 4 5 4 10 0 6 -5 10 -11 10 -5 0 -7
-4 -4 -10z"/>
<path d="M1575 60 c3 -5 8 -10 11 -10 2 0 4 5 4 10 0 6 -5 10 -11 10 -5 0 -7
-4 -4 -10z"/>
<path d="M1750 56 c7 -7 13 -7 20 0 6 6 3 10 -10 10 -13 0 -16 -4 -10 -10z"/>
</g>
</svg>
